<?xml version="1.0" encoding="utf-8"?>
<!-- Generator: Adobe Illustrator 23.0.2, SVG Export Plug-In . SVG Version: 6.00 Build 0)  -->
<svg version="1.1" id="Layer_1" xmlns="http://www.w3.org/2000/svg" xmlns:xlink="http://www.w3.org/1999/xlink" x="0px" y="0px"
	 viewBox="0 0 135 96" style="enable-background:new 0 0 135 96;" xml:space="preserve">
<style type="text/css">
	.st0{fill:#407BFE;}
	.st1{fill:#183E94;}
	.st2{fill:#173D94;}
</style>
<title>logoSolu_135</title>
<g>
	<g id="Layer_1-2">
		<g id="logo">
			<g id="letters">
				<path id="u" class="st0" d="M135,61.9v0.1c0.2,3.9-1.4,7.7-4.3,10.3c-2.9,2.5-6.9,3.8-11.9,3.8c-5.1,0-9-1.3-11.8-3.8
					c-2.9-2.6-4.5-6.4-4.3-10.3V43h11.4v17.1c0,4.2,1.6,6.3,4.7,6.3s4.8-2.1,4.8-6.3V43H135V61.9z"/>
				<path id="l" class="st0" d="M97.1,75.1L97.1,75.1l-11.4,0.1V28.4h11.4V75.1z"/>
				<path id="o" class="st0" d="M63,42.1L63,42.1c5.5-0.1,10,1.6,13.5,4.9c3.4,3.1,5.4,7.4,5.3,12c0.1,4.6-1.8,9-5.2,12.1
					c-3.5,3.3-8,5-13.5,5s-10-1.6-13.5-4.9c-6.7-6.3-7-16.8-0.7-23.5c0.2-0.2,0.4-0.4,0.6-0.6C52.9,43.8,57.4,42.1,63,42.1z
					 M63,66.2c1.9,0,3.7-0.8,5-2.2c2.8-2.7,2.8-7.1,0.1-9.9C66.8,52.7,64.9,52,63,52c-3.9,0-7,3.1-7,7c-0.1,1.9,0.7,3.7,2,5
					C59.3,65.4,61.1,66.2,63,66.2L63,66.2z"/>
				<g id="S">
					<path id="S-2" class="st0" d="M20.8,75.9c-2.8,0-5.6-0.4-8.3-1.1c-3.7-1-7.2-2.6-10.3-4.8c-0.3-0.2-0.3-0.3-0.2-0.6
						c0.9-1.6,1.8-3.3,2.6-4.9c1-1.9,2-3.7,3-5.6c0.2-0.3,0.3-0.3,0.6-0.1c2.3,2,4.9,3.5,7.7,4.5c2.4,0.9,5,1,7.4,0.1
						c1.3-0.4,2.4-1.2,3-2.4c1.2-2.5,0.7-4.8-1.9-6.2c-1.6-0.8-3.3-1.5-5.1-1.9c-1.6-0.4-3.3-0.9-4.8-1.5c-1.3-0.5-2.6-1-3.9-1.6
						c-2.1-1-3.9-2.6-5.1-4.6c-0.7-1.4-1.2-3-1.5-4.6c-0.2-1.9-0.2-3.7,0-5.6c0.2-2.6,1.1-5,2.4-7.2c1-1.6,2.3-3,3.8-4.2
						c0.2-0.1,0.3-0.2,0.5-0.1c1.4,0,2.8,0.2,4.3,0.4c1.5,0.2,3,0.5,4.5,0.8c1.8,0.4,3.6,0.9,5.4,1.5c3.5,1.2,6.8,3,9.8,5.1
						c0.5,0.4,0.5,0.4,0.2,1c-0.4,0.8-0.8,1.5-1.2,2.3c-0.2,0.3-0.3,0.3-0.6,0.1c-1.5-1.2-3.2-2.1-5.1-2.7c-1.7-0.5-3.6-0.7-5.4-0.5
						c-1.4,0.2-2.7,0.8-3.7,1.8c-1.4,1.3-1.4,3.5-0.1,4.9c0.2,0.2,0.5,0.4,0.8,0.6c1,0.7,2.2,1.2,3.3,1.6c2,0.7,4.1,1.2,6.1,1.8
						c3.3,0.9,6.3,2.6,8.7,5c1.2,1.2,2.1,2.7,2.5,4.4c0.8,2.7,0.9,5.5,0.5,8.2c-0.2,1.5-0.5,3-0.9,4.5c-0.6,1.8-1.5,3.5-2.7,4.9
						c-1.8,2-4,3.5-6.4,4.6c-1.8,0.8-3.7,1.4-5.6,1.7C23.8,75.8,22.3,75.9,20.8,75.9z"/>
					<path id="hat" class="st1" d="M1.4,0c1.3,0.1,2.5,0.2,3.7,0.5c1.3,0.3,2.5,0.5,3.8,0.9c0.8,0.2,1.5,0.4,2.3,0.6
						c1.1,0.3,2.2,0.6,3.3,1l2.8,0.8c0.9,0.3,1.8,0.6,2.7,0.8C20.5,4.8,21,5,21.5,5.2s0.9,0.3,1.3,0.4s1,0.3,1.5,0.5
						c1,0.3,2,0.7,3,1c0.6,0.2,1.3,0.4,2,0.7s1.5,0.4,2.2,0.7c0.5,0.2,1.1,0.4,1.6,0.6s1,0.4,1.5,0.5c0.7,0.2,1.3,0.5,2,0.7
						c0.9,0.3,1.9,0.7,2.8,1.1c1.1,0.4,2.3,0.9,3.4,1.3l2.5,1c0.7,0.3,1.3,0.5,2,0.8s1.5,0.6,2.3,0.9c1,0.4,1.9,0.8,2.8,1.3
						c0.7,0.3,1.4,0.7,2.1,1c0.9,0.4,1.8,0.9,2.7,1.4c0.7,0.4,1.4,0.8,2,1.4c0.4,0.4,0.3,0.7-0.2,0.9c-0.3,0.1-0.6,0.1-0.9,0.1
						c-1.6-0.2-5.2-0.9-5.5-1s-0.2,0-0.3,0.1c-0.3,0.5-1.6,4.3-2,5.3s-0.7,1.8-1,2.7c-0.1,0.1-0.1,0.2-0.1,0.4
						c0.1,0.8,0,1.5-0.3,2.2c-0.2,0.6-0.4,1.1-0.7,1.7c-0.2,0.5-0.6,1-1,1.4c-0.4,0.4-0.7,0.3-0.8-0.2c-0.1-0.7-0.1-1.4,0.2-2
						c0.3-1.2,0.8-2.4,1.6-3.4c0.2-0.4,0.4-0.8,0.5-1.3c0.4-1.1,0.8-2.2,1.2-3.3s0.8-2.3,1.3-3.5c0.1-0.3,0-0.3-0.2-0.4
						c-0.7-0.2-1.3-0.4-2-0.6c-1-0.3-2-0.5-3-0.8c-0.4-0.2-0.9-0.2-1.4-0.1c-0.3,0.1-0.5,0.2-0.7,0.4c-0.7,0.8-1.3,1.6-1.8,2.5
						c-0.7,1-1.3,2-1.9,3l-1.4,2.2c-0.6,1.1-1.3,2.2-2,3.2c-0.1,0.2-0.3,0.3-0.5,0.2l0,0L36,30.3c-0.5-0.3-0.9-0.6-1.4-1
						c-2.4-1.6-4.9-2.9-7.6-4c-1.7-0.7-3.4-1.3-5.2-1.7c-1.6-0.4-3.3-0.8-5-1c-1.4-0.2-2.8-0.4-4.3-0.5c-0.4,0-0.4-0.3-0.4-0.5
						c0.1-1.4,0.3-2.7,0.4-4c0.2-1.8,0.3-3.7,0.6-5.6c0.1-1.1,0.2-2.1,0.3-3.2c0-0.2,0-0.3,0-0.5c0-0.4-0.2-0.8-0.7-1
						c-1.4-0.5-2.8-1.2-4.1-1.7c-2-0.9-3.9-1.8-5.8-2.8C1.9,2.3,1,1.6,0.2,0.9C0.1,0.7-0.1,0.5,0,0.3C0.1,0.1,0.3,0,0.5,0H1.4z"/>
				</g>
			</g>
			<path class="st2" d="M1.7,85.8h2.1c1.1,0,2.2,0.3,3,1.1c0.8,0.7,1.2,1.8,1.1,2.9c0.1,1.1-0.4,2.1-1.2,2.8c-0.9,0.7-2,1.1-3.2,1
				H1.7V85.8z M2.7,92.6h0.9c0.9,0,1.7-0.2,2.4-0.7c0.6-0.6,0.9-1.4,0.8-2.2c0.1-0.8-0.3-1.6-0.8-2.2c-0.7-0.6-1.6-0.8-2.4-0.8H2.7
				L2.7,92.6L2.7,92.6z"/>
			<path class="st2" d="M13,93.5v-0.8c-0.2,0.3-0.5,0.5-0.8,0.7c-0.3,0.2-0.7,0.3-1,0.3c-0.7,0-1.4-0.3-1.9-0.8
				c-0.5-0.5-0.8-1.3-0.7-2c0-0.7,0.3-1.4,0.8-1.9c0.5-0.5,1.2-0.8,1.9-0.8c0.3,0,0.7,0.1,1,0.3c0.3,0.2,0.6,0.4,0.9,0.7v-0.8h0.9
				v5.1L13,93.5L13,93.5z M11.3,92.9c0.5,0,0.9-0.2,1.2-0.5C12.8,92,13,91.5,13,91c0-0.5-0.2-1-0.5-1.3c-0.3-0.3-0.8-0.5-1.2-0.6
				c-0.5,0-0.9,0.2-1.3,0.5c-0.6,0.8-0.6,1.9,0,2.7C10.3,92.7,10.8,92.9,11.3,92.9L11.3,92.9z"/>
			<path class="st2" d="M20,93.4c0,0.7-0.2,1.4-0.7,1.9c-0.5,0.5-1.3,0.8-2,0.7c-0.6,0-1.2-0.2-1.7-0.5c-0.4-0.3-0.7-0.8-0.8-1.3
				h0.9c0.1,0.3,0.2,0.6,0.5,0.8c0.3,0.2,0.6,0.3,1,0.3c0.5,0,0.9-0.1,1.3-0.5c0.3-0.3,0.5-0.8,0.5-1.3v-0.8
				c-0.2,0.3-0.5,0.5-0.8,0.7c-0.3,0.2-0.7,0.2-1,0.3c-0.7,0-1.4-0.3-1.8-0.8c-0.5-0.5-0.7-1.2-0.7-1.9c0-0.7,0.3-1.4,0.8-1.9
				c0.5-0.5,1.1-0.8,1.8-0.8c0.3,0,0.7,0.1,1,0.3c0.3,0.2,0.6,0.4,0.8,0.7v-0.8H20L20,93.4L20,93.4z M17.4,92.7
				c0.5,0,0.9-0.2,1.2-0.5c0.7-0.7,0.7-1.8,0-2.5c-0.3-0.3-0.8-0.5-1.2-0.5c-0.5,0-0.9,0.2-1.2,0.5c-0.3,0.4-0.5,0.8-0.5,1.3
				c0,0.5,0.1,0.9,0.5,1.3C16.5,92.6,17,92.7,17.4,92.7L17.4,92.7L17.4,92.7z"/>
			<path class="st2" d="M22.2,93.5h-0.9v-8h0.9V93.5z"/>
			<path class="st2" d="M24.4,86.1c0.1,0.1,0.2,0.3,0.2,0.5c0,0.3-0.3,0.6-0.6,0.6c-0.2,0-0.3-0.1-0.5-0.2c-0.1-0.1-0.2-0.3-0.2-0.4
				c0-0.4,0.3-0.6,0.7-0.7C24.1,85.9,24.3,86,24.4,86.1z M24.4,93.5h-0.9v-5.1h0.9V93.5z"/>
			<path class="st2" d="M29.7,93.7c-0.7,0-1.4-0.2-2-0.7l0.5-0.7c0.4,0.3,0.9,0.5,1.5,0.6c0.2,0,0.5,0,0.7-0.2
				c0.2-0.1,0.2-0.3,0.2-0.5c0-0.2-0.1-0.3-0.2-0.4c-0.2-0.2-0.5-0.3-0.7-0.4c-0.5-0.2-1.1-0.5-1.5-0.8c-0.2-0.2-0.3-0.5-0.3-0.8
				c0-0.4,0.2-0.8,0.5-1c0.4-0.3,0.9-0.4,1.3-0.4c0.6,0,1.2,0.2,1.7,0.4L31,89.5c-0.4-0.3-0.8-0.4-1.3-0.4c-0.2,0-0.4,0-0.6,0.2
				c-0.1,0.1-0.2,0.3-0.2,0.4c0,0.2,0.1,0.3,0.2,0.4c0.3,0.2,0.6,0.3,0.9,0.4c0.5,0.2,0.9,0.4,1.3,0.8c0.2,0.3,0.3,0.6,0.3,0.9
				c0,0.4-0.2,0.8-0.5,1.1C30.7,93.6,30.2,93.8,29.7,93.7L29.7,93.7L29.7,93.7z"/>
			<path class="st2" d="M34.7,89.2h-1v4.3h-0.9v-4.3h-0.9v-0.8h0.9v-1.7h0.9v1.7h1V89.2z"/>
			<path class="st2" d="M37.5,93.7c-0.6,0-1.2-0.2-1.6-0.6c-0.4-0.4-0.6-1-0.6-1.6v-3.1h0.9v3.1c0,0.4,0.1,0.7,0.3,1
				c0.2,0.2,0.6,0.4,0.9,0.4c0.3,0,0.7-0.1,0.9-0.4c0.2-0.3,0.4-0.6,0.3-1v-3.1h0.9v3.1c0,0.6-0.2,1.2-0.6,1.6
				C38.6,93.5,38,93.7,37.5,93.7L37.5,93.7L37.5,93.7z"/>
			<path class="st2" d="M44.9,93.5v-0.8c-0.2,0.3-0.5,0.5-0.8,0.7c-0.3,0.2-0.7,0.3-1,0.3c-0.7,0-1.4-0.3-1.9-0.8
				c-0.5-0.5-0.8-1.3-0.7-2c0-0.7,0.3-1.4,0.8-1.9c0.5-0.5,1.1-0.7,1.8-0.8c0.3,0,0.7,0.1,1,0.3c0.3,0.2,0.6,0.4,0.8,0.7v-3.7h0.9v8
				L44.9,93.5L44.9,93.5z M43.2,92.9c0.5,0,0.9-0.2,1.2-0.5c0.3-0.4,0.5-0.8,0.5-1.3c0-0.5-0.2-1-0.5-1.3c-0.7-0.7-1.8-0.7-2.4-0.1
				c0,0,0,0-0.1,0.1c-0.3,0.4-0.5,0.8-0.5,1.3c0,0.5,0.2,1,0.5,1.4C42.2,92.7,42.7,92.9,43.2,92.9L43.2,92.9z"/>
			<path class="st2" d="M49.4,93.7c-0.7,0-1.4-0.2-1.9-0.7c-0.5-0.5-0.8-1.3-0.8-2c0-1.5,1.1-2.7,2.6-2.7c0,0,0.1,0,0.1,0
				c0.7,0,1.4,0.2,1.9,0.8c0.5,0.5,0.7,1.2,0.7,1.9v0.2h-4.4c0,0.4,0.2,0.9,0.5,1.2c0.3,0.3,0.8,0.5,1.2,0.5c0.6,0,1.2-0.3,1.6-0.8
				l0.8,0.4C51.2,93.2,50.3,93.7,49.4,93.7L49.4,93.7L49.4,93.7z M51,90.5c-0.1-0.8-0.8-1.4-1.6-1.4c-0.4,0-0.8,0.1-1.1,0.4
				c-0.3,0.3-0.5,0.6-0.6,1L51,90.5z"/>
			<path class="st2" d="M57.2,93.5h-0.9v-3.2c0-0.4-0.1-0.7-0.3-1c-0.2-0.2-0.5-0.3-0.8-0.3c-0.6,0.1-1.2,0.4-1.5,0.9v3.5h-0.9v-5.1
				h0.9v0.6c0.4-0.5,1-0.8,1.7-0.8c0.5,0,1,0.2,1.3,0.5c0.3,0.4,0.5,0.9,0.5,1.4L57.2,93.5L57.2,93.5z"/>
			<path class="st2" d="M60.6,89.2h-1v4.3h-0.9v-4.3h-0.9v-0.8h0.9v-1.7h0.9v1.7h1V89.2z"/>
			<path class="st2" d="M62.3,86.1c0.1,0.1,0.2,0.3,0.2,0.5c0,0.3-0.3,0.6-0.6,0.6c-0.2,0-0.3-0.1-0.5-0.2c-0.1-0.1-0.2-0.3-0.2-0.4
				c0-0.4,0.3-0.6,0.7-0.7C62,85.9,62.1,86,62.3,86.1z M62.3,93.5h-0.9v-5.1h0.9V93.5z"/>
			<path class="st2" d="M64,93.7c-0.3-0.1-0.5-0.3-0.5-0.6c0-0.4,0.4-0.6,0.7-0.6c0.3,0,0.5,0.3,0.6,0.6c-0.1,0.7-0.4,1.3-0.8,1.8
				h-0.5C63.6,94.5,63.8,94.1,64,93.7L64,93.7L64,93.7z"/>
			<path class="st2" d="M69.4,89.2c0.2-0.3,0.5-0.5,0.8-0.7c0.3-0.2,0.7-0.3,1-0.3c0.7,0,1.4,0.3,1.9,0.8c0.5,0.5,0.8,1.3,0.7,2
				c0,0.7-0.3,1.4-0.8,1.9c-0.5,0.5-1.2,0.8-1.9,0.8c-0.3,0-0.7-0.1-1-0.3c-0.3-0.2-0.6-0.4-0.8-0.7V96h-0.9v-7.6h0.9L69.4,89.2
				L69.4,89.2z M71.1,92.9c0.5,0,0.9-0.2,1.3-0.5c0.3-0.4,0.5-0.8,0.5-1.3c0-0.5-0.2-1-0.5-1.4c-0.7-0.7-1.8-0.7-2.5,0c0,0,0,0,0,0
				c-0.4,0.4-0.5,0.9-0.5,1.4c0,0.5,0.2,1,0.5,1.3C70.2,92.7,70.7,92.9,71.1,92.9L71.1,92.9L71.1,92.9z"/>
			<path class="st2" d="M77,93.7c-0.7,0-1.4-0.2-1.9-0.7c-1-1.1-1-2.8,0-3.9c0.5-0.5,1.2-0.8,1.9-0.8c0.7,0,1.4,0.2,1.9,0.8
				c0.5,0.6,0.7,1.3,0.7,2v0.2h-4.3c0,0.4,0.2,0.9,0.5,1.2c0.3,0.3,0.8,0.5,1.2,0.5c0.7,0,1.3-0.3,1.6-0.9l0.8,0.4
				C78.9,93.3,78,93.7,77,93.7L77,93.7L77,93.7z M78.6,90.5c-0.1-0.9-1-1.5-1.9-1.4c-0.3,0-0.6,0.2-0.8,0.4c-0.3,0.3-0.5,0.6-0.6,1
				H78.6z"/>
			<path class="st2" d="M83.4,88.3l-0.1,1c-0.2-0.1-0.4-0.1-0.5-0.1c-0.6,0-1.1,0.4-1.3,0.9v3.4h-0.9v-5.1h0.9v0.8
				c0.3-0.6,0.9-0.9,1.5-1C83,88.2,83.2,88.2,83.4,88.3L83.4,88.3z"/>
			<path class="st2" d="M91.4,93.4c0,0.7-0.2,1.4-0.7,1.9c-1,0.9-2.5,0.9-3.6,0.2c-0.4-0.3-0.7-0.8-0.8-1.3h0.9
				c0.1,0.3,0.2,0.6,0.5,0.8c0.3,0.2,0.6,0.3,1,0.3c0.5,0,0.9-0.1,1.3-0.5c0.3-0.3,0.5-0.8,0.5-1.3v-0.8c-0.2,0.3-0.5,0.5-0.8,0.7
				c-0.3,0.2-0.7,0.2-1,0.3c-0.7,0-1.4-0.3-1.8-0.8c-0.5-0.5-0.7-1.2-0.7-1.9c0-0.7,0.2-1.4,0.7-1.9c0.5-0.5,1.1-0.8,1.8-0.8
				c0.3,0,0.7,0.1,1,0.3c0.3,0.2,0.6,0.4,0.8,0.7v-0.8h0.9L91.4,93.4L91.4,93.4z M88.8,92.7c0.5,0,0.9-0.2,1.2-0.5
				c0.3-0.3,0.5-0.8,0.5-1.3c0-0.5-0.2-0.9-0.5-1.3c-0.3-0.3-0.7-0.5-1.2-0.5c-0.5,0-0.9,0.2-1.2,0.5c-0.3,0.4-0.5,0.8-0.5,1.3
				c0,0.5,0.1,0.9,0.5,1.3C87.9,92.6,88.4,92.7,88.8,92.7L88.8,92.7L88.8,92.7z"/>
			<path class="st2" d="M93.6,93.5h-0.9v-8h0.9V93.5z"/>
			<path class="st2" d="M95.8,86.1c0.1,0.1,0.2,0.3,0.2,0.5c0,0.3-0.3,0.6-0.6,0.6c-0.2,0-0.3-0.1-0.5-0.2c-0.1-0.1-0.2-0.3-0.2-0.4
				c0-0.4,0.3-0.6,0.7-0.7C95.5,85.9,95.7,86,95.8,86.1z M95.8,93.5h-0.9v-5.1h0.9V93.5z"/>
			<path class="st2" d="M101.1,93.7c-0.7,0-1.4-0.2-2-0.7l0.5-0.7c0.4,0.3,0.9,0.5,1.4,0.6c0.2,0,0.5,0,0.7-0.2
				c0.1-0.1,0.2-0.3,0.2-0.5c0-0.2-0.1-0.3-0.2-0.4c-0.2-0.2-0.5-0.3-0.7-0.4c-0.5-0.2-1.1-0.5-1.5-0.8c-0.2-0.2-0.3-0.5-0.3-0.8
				c0-0.4,0.2-0.8,0.5-1c0.4-0.3,0.9-0.4,1.3-0.4c0.6,0,1.2,0.2,1.7,0.4l-0.4,0.8c-0.4-0.3-0.8-0.4-1.3-0.4c-0.2,0-0.4,0-0.6,0.2
				c-0.1,0.1-0.2,0.3-0.2,0.4c0,0.2,0.1,0.3,0.2,0.4c0.3,0.2,0.6,0.3,0.9,0.4c0.5,0.1,0.9,0.4,1.3,0.8c0.2,0.2,0.3,0.5,0.3,0.8
				c0,0.4-0.2,0.9-0.5,1.1C102,93.6,101.6,93.8,101.1,93.7L101.1,93.7L101.1,93.7z"/>
			<path class="st2" d="M106.1,89.2h-1v4.3h-0.9v-4.3h-0.9v-0.8h0.9v-1.7h0.9v1.7h1V89.2z"/>
			<path class="st2" d="M108.8,93.7c-0.6,0-1.2-0.2-1.6-0.6c-0.4-0.4-0.6-1-0.6-1.6v-3.1h0.9v3.1c0,0.4,0.1,0.7,0.3,1
				c0.2,0.2,0.6,0.4,0.9,0.4c0.3,0,0.7-0.1,0.9-0.4c0.2-0.3,0.4-0.6,0.3-1v-3.1h0.9v3.1c0,0.6-0.2,1.1-0.6,1.6
				C110,93.5,109.4,93.7,108.8,93.7L108.8,93.7L108.8,93.7z"/>
			<path class="st2" d="M116.3,93.5v-0.8c-0.2,0.3-0.5,0.5-0.8,0.7c-0.3,0.2-0.7,0.3-1,0.3c-0.7,0-1.4-0.3-1.9-0.8
				c-0.5-0.5-0.8-1.3-0.7-2c0-0.7,0.3-1.4,0.8-1.9c0.5-0.5,1.2-0.8,1.9-0.8c0.3,0,0.7,0.1,1,0.3c0.3,0.2,0.6,0.4,0.8,0.7v-3.6h0.9v8
				L116.3,93.5L116.3,93.5z M114.5,92.9c0.5,0,0.9-0.2,1.2-0.5c0.3-0.4,0.5-0.8,0.5-1.3c0-0.5-0.2-1-0.5-1.3
				c-0.7-0.7-1.8-0.7-2.4-0.1c0,0,0,0-0.1,0.1c-0.3,0.4-0.5,0.9-0.5,1.3c0,0.5,0.2,1,0.5,1.4C113.6,92.7,114,92.9,114.5,92.9
				L114.5,92.9z"/>
			<path class="st2" d="M120.8,93.7c-0.7,0-1.4-0.3-1.9-0.8c-1-1.1-1-2.8,0-3.9c0.5-0.5,1.2-0.8,1.9-0.8c0.7,0,1.4,0.2,1.9,0.8
				c0.5,0.6,0.7,1.3,0.7,2v0.2H119c0,0.4,0.2,0.9,0.5,1.2c0.3,0.3,0.8,0.5,1.2,0.5c0.6,0,1.3-0.3,1.6-0.8l0.8,0.4
				C122.6,93.3,121.7,93.7,120.8,93.7L120.8,93.7L120.8,93.7z M122.4,90.5c-0.1-0.8-0.8-1.4-1.6-1.4c-0.4,0-0.8,0.1-1.1,0.4
				c-0.3,0.3-0.5,0.6-0.6,1L122.4,90.5z"/>
			<path class="st2" d="M128.6,93.5h-0.9v-3.2c0-0.4-0.1-0.7-0.3-1c-0.2-0.2-0.5-0.3-0.8-0.3c-0.6,0.1-1.1,0.4-1.5,0.9v3.5h-0.9
				v-5.1h0.9v0.6c0.4-0.5,1-0.8,1.7-0.8c0.5,0,1,0.2,1.3,0.5c0.3,0.4,0.5,0.9,0.5,1.4L128.6,93.5L128.6,93.5z"/>
			<path class="st2" d="M132,89.2h-1v4.3h-0.9v-4.3h-0.9v-0.8h0.9v-1.7h0.9v1.7h1V89.2z"/>
			<path class="st2" d="M133.6,86.1c0.1,0.1,0.2,0.3,0.2,0.5c0,0.3-0.3,0.6-0.6,0.6l0,0c-0.2,0-0.3-0.1-0.5-0.2
				c-0.1-0.1-0.2-0.3-0.2-0.4c0-0.4,0.3-0.6,0.7-0.7C133.4,85.9,133.5,86,133.6,86.1z M133.6,93.5h-0.9v-5.1h0.9V93.5z"/>
		</g>
	</g>
</g>
</svg>
