<?xml version="1.0" standalone="no"?>
<!DOCTYPE svg PUBLIC "-//W3C//DTD SVG 20010904//EN"
 "http://www.w3.org/TR/2001/REC-SVG-20010904/DTD/svg10.dtd">
<svg version="1.0" xmlns="http://www.w3.org/2000/svg"
 width="2000.000000pt" height="2000.000000pt" viewBox="0 0 2000.000000 2000.000000"
 preserveAspectRatio="xMidYMid meet">
<metadata>
Created by potrace 1.11, written by Peter Selinger 2001-2013
</metadata>
<g transform="translate(0.000000,2000.000000) scale(0.100000,-0.100000)"
fill="#000000" stroke="none">
<path d="M9207 18824 c-1 -1 -54 -5 -117 -8 -63 -4 -131 -9 -150 -11 -19 -2
-69 -7 -110 -10 -41 -4 -86 -8 -100 -10 -14 -2 -43 -6 -65 -9 -22 -3 -60 -8
-85 -11 -171 -22 -477 -86 -670 -140 -69 -19 -132 -37 -140 -39 -103 -27 -522
-184 -528 -198 -2 -5 -10 -8 -18 -8 -12 0 -267 -123 -349 -168 -98 -54 -265
-154 -361 -217 -107 -70 -365 -261 -434 -321 -18 -16 -43 -38 -56 -49 -224
-195 -454 -429 -615 -625 -30 -36 -56 -67 -59 -70 -31 -26 -238 -321 -327
-465 -48 -78 -193 -333 -193 -340 0 -2 -21 -48 -46 -102 -59 -126 -123 -281
-167 -408 -32 -92 -104 -336 -113 -378 -2 -10 -5 -26 -8 -35 -3 -9 -8 -29 -11
-44 -3 -16 -7 -38 -10 -50 -3 -13 -7 -34 -10 -48 -6 -28 -41 -225 -50 -285 -3
-22 -8 -65 -11 -95 -3 -30 -7 -66 -9 -80 -27 -158 -27 -890 0 -1031 2 -8 6
-42 9 -75 12 -108 47 -307 77 -434 17 -69 32 -132 34 -140 9 -45 31 -119 70
-235 161 -489 411 -948 767 -1410 196 -254 525 -599 788 -825 41 -36 77 -67
80 -70 3 -3 41 -35 85 -70 44 -36 82 -68 85 -71 15 -18 338 -252 485 -352 266
-180 710 -453 1018 -626 20 -12 54 -31 75 -42 163 -93 598 -328 727 -393 44
-23 82 -44 85 -47 3 -3 345 -175 760 -382 415 -208 802 -402 860 -433 1036
-548 1500 -857 1929 -1284 48 -47 118 -121 156 -165 39 -44 72 -82 75 -85 4
-3 45 -57 93 -121 153 -205 281 -437 362 -654 40 -109 100 -330 111 -410 3
-27 8 -59 10 -70 23 -119 22 -469 -1 -579 -2 -12 -7 -39 -10 -61 -36 -276
-160 -589 -340 -859 -41 -61 -82 -120 -92 -131 -10 -11 -31 -37 -46 -58 -45
-59 -113 -133 -227 -246 -246 -243 -507 -417 -832 -557 -46 -20 -90 -38 -98
-40 -8 -2 -60 -20 -115 -39 -143 -49 -416 -115 -540 -131 -22 -2 -51 -7 -65
-9 -14 -2 -52 -7 -85 -10 -33 -4 -73 -9 -90 -11 -186 -23 -591 -23 -840 1
-212 20 -443 60 -647 111 -10 2 -26 6 -35 8 -10 2 -72 20 -138 39 -268 79
-536 187 -795 320 -96 49 -185 95 -197 101 -13 6 -23 14 -23 19 0 4 -5 7 -12
7 -22 0 -363 219 -508 327 -649 480 -1115 978 -1532 1639 -42 66 -86 138 -98
160 -122 216 -170 305 -248 467 -51 103 -92 189 -92 192 0 3 -16 40 -36 82
-164 356 -388 1036 -506 1536 -31 136 -45 196 -64 292 -13 68 8 63 -244 62
l-230 0 0 -3122 0 -3122 229 0 230 0 37 76 c21 42 38 78 39 81 2 14 84 153
124 210 67 98 116 157 205 246 67 66 225 194 240 194 2 0 38 20 78 44 102 60
242 114 357 138 128 27 285 21 476 -18 39 -8 82 -17 98 -20 83 -16 457 -146
572 -198 130 -59 820 -328 875 -341 8 -2 80 -26 160 -53 80 -27 192 -64 250
-81 58 -17 119 -35 135 -41 58 -18 391 -99 435 -105 24 -4 47 -8 50 -10 3 -2
50 -11 105 -20 55 -10 109 -19 120 -21 11 -2 38 -6 60 -9 22 -3 72 -9 110 -15
107 -14 164 -21 230 -26 33 -3 83 -7 110 -9 302 -25 952 -25 1155 0 14 1 64 6
112 9 48 4 98 9 110 11 13 2 50 7 83 10 33 4 69 8 80 10 11 1 45 5 75 9 30 4
66 9 80 12 42 8 63 11 110 19 25 4 54 9 65 11 11 2 34 7 50 10 17 3 73 14 125
25 52 11 106 22 120 25 14 2 32 7 40 10 8 3 24 8 35 10 141 27 629 184 790
254 11 5 40 18 65 28 130 56 188 83 320 149 80 40 156 79 170 87 14 8 81 47
150 87 253 146 557 365 810 582 211 183 600 588 735 768 11 14 40 53 65 85 60
78 61 79 171 245 234 349 413 715 532 1084 49 152 77 242 82 265 2 8 16 67 30
130 21 97 30 134 40 170 0 3 5 30 9 60 4 30 10 64 12 75 2 11 6 40 10 65 3 25
8 53 10 63 2 10 6 46 9 80 4 34 8 76 10 92 19 152 26 674 12 840 -4 44 -10
105 -12 135 -5 59 -12 117 -20 174 -3 20 -7 53 -10 74 -110 797 -494 1635
-1042 2272 -128 149 -375 396 -519 520 -16 14 -61 52 -99 86 -499 433 -1400
1024 -2270 1489 -49 26 -117 62 -150 80 -159 85 -366 191 -640 327 -1197 596
-1485 743 -2030 1038 -73 39 -286 160 -335 189 -19 11 -42 24 -50 28 -8 3 -92
55 -187 114 -482 300 -970 736 -1221 1089 -25 36 -50 67 -54 68 -4 2 -8 7 -8
12 0 5 -16 32 -35 62 -34 49 -115 206 -142 273 -52 125 -97 301 -117 458 -24
181 -15 500 18 637 3 14 8 36 10 50 8 43 56 202 83 270 44 115 145 306 199
377 13 17 24 34 24 37 0 3 6 14 14 23 8 10 43 54 78 98 81 102 249 274 358
365 264 223 609 395 976 490 108 27 108 28 264 55 229 39 366 50 645 50 198 0
426 -10 465 -20 8 -2 40 -6 71 -10 31 -3 67 -8 80 -10 13 -3 35 -7 49 -9 14
-3 41 -8 60 -10 19 -3 46 -8 60 -11 241 -49 376 -88 665 -192 423 -153 953
-472 1380 -831 215 -181 499 -459 630 -616 22 -27 53 -63 68 -80 53 -59 263
-341 328 -441 94 -143 159 -245 159 -250 0 -2 23 -43 51 -92 109 -186 315
-628 359 -768 7 -22 15 -44 18 -49 23 -40 189 -575 206 -662 3 -16 10 -49 16
-74 7 -25 13 -52 15 -60 15 -58 75 -364 75 -379 0 -11 6 -21 13 -23 6 -2 119
-4 251 -4 l238 1 -1 110 c-2 61 -4 173 -6 250 -4 157 -14 573 -20 860 -7 305
-15 665 -20 870 -3 105 -7 287 -10 405 -12 512 -15 666 -20 855 -3 110 -7 310
-10 445 -3 135 -8 335 -10 445 -3 110 -7 290 -10 400 -2 110 -7 315 -10 455
-4 140 -7 292 -8 337 l-1 82 -184 -1 c-124 -1 -185 -5 -187 -12 -2 -6 -20 -81
-40 -166 -20 -85 -43 -177 -51 -203 -9 -26 -17 -53 -18 -60 -5 -26 -30 -103
-36 -112 -4 -5 -10 -23 -14 -38 -13 -56 -91 -224 -130 -280 -82 -120 -213
-209 -356 -243 -110 -26 -237 -26 -370 -1 -191 37 -539 168 -904 342 -263 124
-383 180 -511 235 -425 185 -909 345 -1226 405 -165 32 -240 45 -269 50 -19 3
-46 7 -60 10 -14 2 -50 7 -80 10 -30 3 -62 8 -70 10 -14 4 -102 13 -179 20
-20 2 -61 6 -91 9 -146 15 -248 19 -523 21 -163 1 -298 1 -300 -1z"/>
</g>
</svg>
