<?xml version="1.0" encoding="utf-8"?>
<!-- Generator: Adobe Illustrator 23.0.2, SVG Export Plug-In . SVG Version: 6.00 Build 0)  -->
<svg version="1.1" id="Layer_1" xmlns="http://www.w3.org/2000/svg" xmlns:xlink="http://www.w3.org/1999/xlink" x="0px" y="0px"
	 viewBox="0 0 1626 607.5" style="enable-background:new 0 0 1626 607.5;" xml:space="preserve">
<style type="text/css">
	.st0{fill:#54595D;}
</style>
<title>soluWordmark_1</title>
<g>
	<g id="logo">
		<path class="st0" d="M375.4,179.7l-1.6,1.6c-52.7-30.1-97-45.1-132.9-45.1c-17.7,0-31.1,3.8-40.3,11.3
			c-9.7,7.5-14.5,16.9-14.5,28.2c0,11.8,5.9,21.8,17.7,29.8c12.4,8.1,37.6,18.5,75.7,31.4c66.6,22.6,113.1,48.3,139.4,77.3
			c26.9,29.5,40.3,68.8,40.3,117.6c0,52.7-20.7,95.1-62,127.3c-41.3,32.2-96.4,48.3-165.3,48.3c-40.8,0-81.4-7.5-121.7-22.6
			C69,569.3,32.2,548.4,0,522.1l93.5-114.4c50.5,44,97.7,66.1,141.8,66.1c42.4,0,63.6-12.4,63.6-37.1c0-14-7.5-25.8-22.6-35.5
			c-16.1-10.2-46.7-23.6-91.8-40.3C123.8,337.9,82.4,311.5,60.4,282s-33-63.4-33-101.5c0-51.6,20.4-94.5,61.2-128.9S181.6,0,244.9,0
			c69.3,0,136.4,18.8,201.4,56.4l-70.9,124.1V179.7z"/>
		<path class="st0" d="M717.4,175.6v-0.8c69.8,0,126.8,20.9,170.8,62.8c44,40.8,66.1,91.6,66.1,152.3c0,60.2-22,111.2-66.1,153.1
			c-44,41.9-100.7,62.8-170,62.8s-126.2-20.7-170.8-62c-44-41.9-66.1-93.2-66.1-153.9c0-59.1,21.8-109.6,65.3-151.5
			C589.5,196.6,646.5,175.6,717.4,175.6z M717.4,477.8L717.4,477.8c24.2,0,44.8-8.6,62-25.8c16.7-16.7,25-37.9,25-63.6
			c0-25.2-8.1-46.2-24.2-62.8c-17.2-17.2-38.1-25.8-62.8-25.8c-24.2,0-44.8,8.6-62,25.8c-17.2,17.2-25.8,37.9-25.8,62
			c0,25.3,8.3,46.2,25,62.9C671.7,467.6,693.2,477.8,717.4,477.8z"/>
		<path class="st0" d="M1147.1,591.4v0.8h-143.4V1.6h143.4V591.4z"/>
		<path class="st0" d="M1626,425.4v1.6c0,54.8-18,98.3-54,130.5c-36.5,31.7-86.7,47.5-150.7,47.5c-63.4,0-113-16.1-149-48.3
			s-54-75.7-54-130.5V186.1h143.4V402c0,52.7,19.9,79,59.6,79c40.8,0,61.2-26.3,61.2-79V186.1H1626V425.4z"/>
	</g>
</g>
</svg>
